<svg width="20" height="24" viewBox="0 0 20 24" fill="none" xmlns="http://www.w3.org/2000/svg">
<path d="M10.282 5.53846C11.3359 5.53846 12.657 4.8061 13.4437 3.82962C14.1562 2.94469 14.6758 1.70884 14.6758 0.472981C14.6758 0.305149 14.6609 0.137317 14.6312 0C13.4586 0.0457724 12.0484 0.808645 11.2023 1.8309C10.5344 2.60903 9.92578 3.82963 9.92578 5.08074C9.92578 5.26383 9.95547 5.44692 9.97031 5.50795C10.0445 5.5232 10.1633 5.53846 10.282 5.53846ZM6.57109 24C8.01094 24 8.64922 23.0083 10.4453 23.0083C12.2711 23.0083 12.6719 23.9695 14.275 23.9695C15.8484 23.9695 16.9023 22.4743 17.8969 21.0095C19.0102 19.3312 19.4703 17.6834 19.5 17.6071C19.3961 17.5766 16.3828 16.3102 16.3828 12.7552C16.3828 9.67324 18.7578 8.28481 18.8914 8.178C17.318 5.85887 14.9281 5.79784 14.275 5.79784C12.5086 5.79784 11.0688 6.89638 10.1633 6.89638C9.18359 6.89638 7.89219 5.85887 6.36328 5.85887C3.45391 5.85887 0.5 8.33058 0.5 12.9994C0.5 15.8983 1.59844 18.965 2.94922 20.9485C4.10703 22.6268 5.11641 24 6.57109 24Z" fill="white"/>
</svg>
